<svg id="visual" viewBox="0 0 6000 3000" width="6000" height="3000" xmlns="http://www.w3.org/2000/svg" xmlns:xlink="http://www.w3.org/1999/xlink" version="1.1"><rect x="0" y="0" width="6000" height="3000" fill="#efefef"></rect><path d="M0 1261L500 1214L1000 1385L1500 973L2000 1132L2500 1415L3000 1402L3500 1365L4000 984L4500 1230L5000 1443L5500 1480L6000 1129L6000 0L5500 0L5000 0L4500 0L4000 0L3500 0L3000 0L2500 0L2000 0L1500 0L1000 0L500 0L0 0Z" fill="#865f68"></path><path d="M0 992L500 956L1000 764L1500 743L2000 766L2500 884L3000 1210L3500 988L4000 771L4500 1108L5000 789L5500 828L6000 867L6000 0L5500 0L5000 0L4500 0L4000 0L3500 0L3000 0L2500 0L2000 0L1500 0L1000 0L500 0L0 0Z" fill="#a36d7a"></path><path d="M0 698L500 705L1000 899L1500 661L2000 872L2500 820L3000 723L3500 777L4000 958L4500 792L5000 652L5500 770L6000 571L6000 0L5500 0L5000 0L4500 0L4000 0L3500 0L3000 0L2500 0L2000 0L1500 0L1000 0L500 0L0 0Z" fill="#c17c8c"></path><path d="M0 360L500 499L1000 423L1500 709L2000 578L2500 707L3000 689L3500 573L4000 670L4500 505L5000 658L5500 438L6000 441L6000 0L5500 0L5000 0L4500 0L4000 0L3500 0L3000 0L2500 0L2000 0L1500 0L1000 0L500 0L0 0Z" fill="#e08b9f"></path><path d="M0 321L500 378L1000 271L1500 206L2000 291L2500 271L3000 355L3500 254L4000 433L4500 383L5000 447L5500 324L6000 183L6000 0L5500 0L5000 0L4500 0L4000 0L3500 0L3000 0L2500 0L2000 0L1500 0L1000 0L500 0L0 0Z" fill="#ff9ab2"></path></svg>