<svg id="visual" viewBox="0 0 6000 3000" width="6000" height="3000" xmlns="http://www.w3.org/2000/svg" xmlns:xlink="http://www.w3.org/1999/xlink" version="1.1"><rect x="0" y="0" width="6000" height="3000" fill="#ffffff"></rect><path d="M0 1144L142.8 1155.7C285.7 1167.3 571.3 1190.7 857 1110.5C1142.7 1030.3 1428.3 846.7 1714 827C1999.7 807.3 2285.3 951.7 2571.2 967.8C2857 984 3143 872 3428.8 870.8C3714.7 869.7 4000.3 979.3 4286 940.5C4571.7 901.7 4857.3 714.3 5143 684C5428.7 653.7 5714.3 780.3 5857.2 843.7L6000 907L6000 3001L5857.2 3001C5714.3 3001 5428.7 3001 5143 3001C4857.3 3001 4571.7 3001 4286 3001C4000.3 3001 3714.7 3001 3428.8 3001C3143 3001 2857 3001 2571.2 3001C2285.3 3001 1999.7 3001 1714 3001C1428.3 3001 1142.7 3001 857 3001C571.3 3001 285.7 3001 142.8 3001L0 3001Z" fill="#ffffff"></path><path d="M0 1140L142.8 1235.5C285.7 1331 571.3 1522 857 1585C1142.7 1648 1428.3 1583 1714 1507.7C1999.7 1432.3 2285.3 1346.7 2571.2 1358.8C2857 1371 3143 1481 3428.8 1433.3C3714.7 1385.7 4000.3 1180.3 4286 1157.7C4571.7 1135 4857.3 1295 5143 1375.3C5428.7 1455.7 5714.3 1456.3 5857.2 1456.7L6000 1457L6000 3001L5857.2 3001C5714.3 3001 5428.7 3001 5143 3001C4857.3 3001 4571.7 3001 4286 3001C4000.3 3001 3714.7 3001 3428.8 3001C3143 3001 2857 3001 2571.2 3001C2285.3 3001 1999.7 3001 1714 3001C1428.3 3001 1142.7 3001 857 3001C571.3 3001 285.7 3001 142.8 3001L0 3001Z" fill="#ffe6eb"></path><path d="M0 1377L142.8 1474.2C285.7 1571.3 571.3 1765.7 857 1770.5C1142.7 1775.3 1428.3 1590.7 1714 1612.8C1999.7 1635 2285.3 1864 2571.2 1876.8C2857 1889.7 3143 1686.3 3428.8 1623.8C3714.7 1561.3 4000.3 1639.7 4286 1651.5C4571.7 1663.3 4857.3 1608.7 5143 1631.3C5428.7 1654 5714.3 1754 5857.2 1804L6000 1854L6000 3001L5857.2 3001C5714.3 3001 5428.7 3001 5143 3001C4857.3 3001 4571.7 3001 4286 3001C4000.3 3001 3714.7 3001 3428.8 3001C3143 3001 2857 3001 2571.2 3001C2285.3 3001 1999.7 3001 1714 3001C1428.3 3001 1142.7 3001 857 3001C571.3 3001 285.7 3001 142.8 3001L0 3001Z" fill="#ffcdd8"></path><path d="M0 1881L142.8 1966.2C285.7 2051.3 571.3 2221.7 857 2248.8C1142.7 2276 1428.3 2160 1714 2083.3C1999.7 2006.7 2285.3 1969.3 2571.2 2011.2C2857 2053 3143 2174 3428.8 2240.8C3714.7 2307.7 4000.3 2320.3 4286 2284.3C4571.7 2248.3 4857.3 2163.7 5143 2102.3C5428.7 2041 5714.3 2003 5857.2 1984L6000 1965L6000 3001L5857.2 3001C5714.3 3001 5428.7 3001 5143 3001C4857.3 3001 4571.7 3001 4286 3001C4000.3 3001 3714.7 3001 3428.8 3001C3143 3001 2857 3001 2571.2 3001C2285.3 3001 1999.7 3001 1714 3001C1428.3 3001 1142.7 3001 857 3001C571.3 3001 285.7 3001 142.8 3001L0 3001Z" fill="#ffb4c5"></path><path d="M0 2554L142.8 2545.8C285.7 2537.7 571.3 2521.3 857 2526C1142.7 2530.7 1428.3 2556.3 1714 2554.7C1999.7 2553 2285.3 2524 2571.2 2512.2C2857 2500.3 3143 2505.7 3428.8 2499.2C3714.7 2492.7 4000.3 2474.3 4286 2478.2C4571.7 2482 4857.3 2508 5143 2536.2C5428.7 2564.3 5714.3 2594.7 5857.2 2609.8L6000 2625L6000 3001L5857.2 3001C5714.3 3001 5428.7 3001 5143 3001C4857.3 3001 4571.7 3001 4286 3001C4000.3 3001 3714.7 3001 3428.8 3001C3143 3001 2857 3001 2571.2 3001C2285.3 3001 1999.7 3001 1714 3001C1428.3 3001 1142.7 3001 857 3001C571.3 3001 285.7 3001 142.8 3001L0 3001Z" fill="#ff9ab2"></path></svg>