<svg id="visual" viewBox="0 0 900 600" width="900" height="600" xmlns="http://www.w3.org/2000/svg" xmlns:xlink="http://www.w3.org/1999/xlink" version="1.1"><rect x="0" y="0" width="900" height="600" fill="#ffffff"></rect><defs><linearGradient id="grad1_0" x1="33.3%" y1="100%" x2="100%" y2="0%"><stop offset="20%" stop-color="#ff7599" stop-opacity="1"></stop><stop offset="80%" stop-color="#ff7599" stop-opacity="1"></stop></linearGradient></defs><defs><linearGradient id="grad1_1" x1="33.3%" y1="100%" x2="100%" y2="0%"><stop offset="20%" stop-color="#ff7599" stop-opacity="1"></stop><stop offset="80%" stop-color="#ff93ad" stop-opacity="1"></stop></linearGradient></defs><defs><linearGradient id="grad1_2" x1="33.3%" y1="100%" x2="100%" y2="0%"><stop offset="20%" stop-color="#ffafc0" stop-opacity="1"></stop><stop offset="80%" stop-color="#ff93ad" stop-opacity="1"></stop></linearGradient></defs><defs><linearGradient id="grad1_3" x1="33.3%" y1="100%" x2="100%" y2="0%"><stop offset="20%" stop-color="#ffafc0" stop-opacity="1"></stop><stop offset="80%" stop-color="#ffcad5" stop-opacity="1"></stop></linearGradient></defs><defs><linearGradient id="grad1_4" x1="33.3%" y1="100%" x2="100%" y2="0%"><stop offset="20%" stop-color="#ffe5ea" stop-opacity="1"></stop><stop offset="80%" stop-color="#ffcad5" stop-opacity="1"></stop></linearGradient></defs><defs><linearGradient id="grad1_5" x1="33.3%" y1="100%" x2="100%" y2="0%"><stop offset="20%" stop-color="#ffe5ea" stop-opacity="1"></stop><stop offset="80%" stop-color="#ffffff" stop-opacity="1"></stop></linearGradient></defs><defs><linearGradient id="grad2_0" x1="0%" y1="100%" x2="66.7%" y2="0%"><stop offset="20%" stop-color="#ff7599" stop-opacity="1"></stop><stop offset="80%" stop-color="#ff7599" stop-opacity="1"></stop></linearGradient></defs><defs><linearGradient id="grad2_1" x1="0%" y1="100%" x2="66.7%" y2="0%"><stop offset="20%" stop-color="#ff93ad" stop-opacity="1"></stop><stop offset="80%" stop-color="#ff7599" stop-opacity="1"></stop></linearGradient></defs><defs><linearGradient id="grad2_2" x1="0%" y1="100%" x2="66.7%" y2="0%"><stop offset="20%" stop-color="#ff93ad" stop-opacity="1"></stop><stop offset="80%" stop-color="#ffafc0" stop-opacity="1"></stop></linearGradient></defs><defs><linearGradient id="grad2_3" x1="0%" y1="100%" x2="66.7%" y2="0%"><stop offset="20%" stop-color="#ffcad5" stop-opacity="1"></stop><stop offset="80%" stop-color="#ffafc0" stop-opacity="1"></stop></linearGradient></defs><defs><linearGradient id="grad2_4" x1="0%" y1="100%" x2="66.7%" y2="0%"><stop offset="20%" stop-color="#ffcad5" stop-opacity="1"></stop><stop offset="80%" stop-color="#ffe5ea" stop-opacity="1"></stop></linearGradient></defs><defs><linearGradient id="grad2_5" x1="0%" y1="100%" x2="66.7%" y2="0%"><stop offset="20%" stop-color="#ffffff" stop-opacity="1"></stop><stop offset="80%" stop-color="#ffe5ea" stop-opacity="1"></stop></linearGradient></defs><g transform="translate(900, 600)"><path d="M-405.6 0C-381.9 -63 -358.2 -126 -327.4 -189C-296.5 -252 -258.6 -315.2 -202.8 -351.3C-147.1 -387.4 -73.5 -396.5 0 -405.6L0 0Z" fill="#fff2f4"></path><path d="M-338 0C-318.3 -52.5 -298.5 -105 -272.8 -157.5C-247.1 -210 -215.5 -262.6 -169 -292.7C-122.6 -322.8 -61.3 -330.4 0 -338L0 0Z" fill="#ffd7df"></path><path d="M-270.4 0C-254.6 -42 -238.8 -84 -218.2 -126C-197.7 -168 -172.4 -210.1 -135.2 -234.2C-98 -258.3 -49 -264.3 0 -270.4L0 0Z" fill="#ffbdcb"></path><path d="M-202.8 0C-191 -31.5 -179.1 -63 -163.7 -94.5C-148.3 -126 -129.3 -157.6 -101.4 -175.6C-73.5 -193.7 -36.8 -198.3 0 -202.8L0 0Z" fill="#ffa1b6"></path><path d="M-135.2 0C-127.3 -21 -119.4 -42 -109.1 -63C-98.8 -84 -86.2 -105.1 -67.6 -117.1C-49 -129.1 -24.5 -132.2 0 -135.2L0 0Z" fill="#ff84a3"></path><path d="M-67.6 0C-63.7 -10.5 -59.7 -21 -54.6 -31.5C-49.4 -42 -43.1 -52.5 -33.8 -58.5C-24.5 -64.6 -12.3 -66.1 0 -67.6L0 0Z" fill="#ff7599"></path></g><g transform="translate(0, 0)"><path d="M405.6 0C342.7 40.3 279.7 80.6 253.7 146.5C227.8 212.4 238.9 303.8 202.8 351.3C166.7 398.7 83.3 402.2 0 405.6L0 0Z" fill="#fff2f4"></path><path d="M338 0C285.5 33.6 233.1 67.2 211.5 122.1C189.8 177 199.1 253.2 169 292.7C138.9 332.3 69.5 335.1 0 338L0 0Z" fill="#ffd7df"></path><path d="M270.4 0C228.4 26.9 186.5 53.7 169.2 97.7C151.9 141.6 159.3 202.6 135.2 234.2C111.1 265.8 55.6 268.1 0 270.4L0 0Z" fill="#ffbdcb"></path><path d="M202.8 0C171.3 20.2 139.8 40.3 126.9 73.2C113.9 106.2 119.5 151.9 101.4 175.6C83.3 199.4 41.7 201.1 0 202.8L0 0Z" fill="#ffa1b6"></path><path d="M135.2 0C114.2 13.4 93.2 26.9 84.6 48.8C75.9 70.8 79.6 101.3 67.6 117.1C55.6 132.9 27.8 134.1 0 135.2L0 0Z" fill="#ff84a3"></path><path d="M67.6 0C57.1 6.7 46.6 13.4 42.3 24.4C38 35.4 39.8 50.6 33.8 58.5C27.8 66.5 13.9 67 0 67.6L0 0Z" fill="#ff7599"></path></g></svg>