<svg id="visual" viewBox="0 0 6000 3000" width="6000" height="3000" xmlns="http://www.w3.org/2000/svg" xmlns:xlink="http://www.w3.org/1999/xlink" version="1.1"><rect x="0" y="0" width="6000" height="3000" fill="#fff"></rect><path d="M0 1166L857 1248L1714 1224L2571 1052L3429 1366L4286 1031L5143 1052L6000 944L6000 0L5143 0L4286 0L3429 0L2571 0L1714 0L857 0L0 0Z" fill="#956d76"></path><path d="M0 938L857 1078L1714 889L2571 1199L3429 794L4286 1165L5143 879L6000 1063L6000 0L5143 0L4286 0L3429 0L2571 0L1714 0L857 0L0 0Z" fill="#af7885"></path><path d="M0 650L857 910L1714 658L2571 647L3429 594L4286 756L5143 848L6000 832L6000 0L5143 0L4286 0L3429 0L2571 0L1714 0L857 0L0 0Z" fill="#c98394"></path><path d="M0 652L857 362L1714 517L2571 616L3429 424L4286 679L5143 684L6000 396L6000 0L5143 0L4286 0L3429 0L2571 0L1714 0L857 0L0 0Z" fill="#e48ea3"></path><path d="M0 292L857 437L1714 293L2571 285L3429 337L4286 228L5143 432L6000 326L6000 0L5143 0L4286 0L3429 0L2571 0L1714 0L857 0L0 0Z" fill="#ff9ab2"></path></svg>