<svg id="visual" viewBox="0 0 900 600" width="900" height="600" xmlns="http://www.w3.org/2000/svg" xmlns:xlink="http://www.w3.org/1999/xlink" version="1.1"><path d="M0 115L18.8 127C37.7 139 75.3 163 112.8 167C150.3 171 187.7 155 225.2 163C262.7 171 300.3 203 337.8 207C375.3 211 412.7 187 450.2 190C487.7 193 525.3 223 562.8 213C600.3 203 637.7 153 675.2 130C712.7 107 750.3 111 787.8 117C825.3 123 862.7 131 881.3 135L900 139L900 0L881.3 0C862.7 0 825.3 0 787.8 0C750.3 0 712.7 0 675.2 0C637.7 0 600.3 0 562.8 0C525.3 0 487.7 0 450.2 0C412.7 0 375.3 0 337.8 0C300.3 0 262.7 0 225.2 0C187.7 0 150.3 0 112.8 0C75.3 0 37.7 0 18.8 0L0 0Z" fill="#ffffff"></path><path d="M0 397L18.8 390C37.7 383 75.3 369 112.8 356C150.3 343 187.7 331 225.2 332C262.7 333 300.3 347 337.8 360C375.3 373 412.7 385 450.2 388C487.7 391 525.3 385 562.8 369C600.3 353 637.7 327 675.2 310C712.7 293 750.3 285 787.8 301C825.3 317 862.7 357 881.3 377L900 397L900 137L881.3 133C862.7 129 825.3 121 787.8 115C750.3 109 712.7 105 675.2 128C637.7 151 600.3 201 562.8 211C525.3 221 487.7 191 450.2 188C412.7 185 375.3 209 337.8 205C300.3 201 262.7 169 225.2 161C187.7 153 150.3 169 112.8 165C75.3 161 37.7 137 18.8 125L0 113Z" fill="#ffdee5"></path><path d="M0 445L18.8 444C37.7 443 75.3 441 112.8 436C150.3 431 187.7 423 225.2 423C262.7 423 300.3 431 337.8 443C375.3 455 412.7 471 450.2 469C487.7 467 525.3 447 562.8 424C600.3 401 637.7 375 675.2 364C712.7 353 750.3 357 787.8 379C825.3 401 862.7 441 881.3 461L900 481L900 395L881.3 375C862.7 355 825.3 315 787.8 299C750.3 283 712.7 291 675.2 308C637.7 325 600.3 351 562.8 367C525.3 383 487.7 389 450.2 386C412.7 383 375.3 371 337.8 358C300.3 345 262.7 331 225.2 330C187.7 329 150.3 341 112.8 354C75.3 367 37.7 381 18.8 388L0 395Z" fill="#ffbdcb"></path><path d="M0 511L18.8 516C37.7 521 75.3 531 112.8 536C150.3 541 187.7 541 225.2 534C262.7 527 300.3 513 337.8 515C375.3 517 412.7 535 450.2 542C487.7 549 525.3 545 562.8 533C600.3 521 637.7 501 675.2 494C712.7 487 750.3 493 787.8 504C825.3 515 862.7 531 881.3 539L900 547L900 479L881.3 459C862.7 439 825.3 399 787.8 377C750.3 355 712.7 351 675.2 362C637.7 373 600.3 399 562.8 422C525.3 445 487.7 465 450.2 467C412.7 469 375.3 453 337.8 441C300.3 429 262.7 421 225.2 421C187.7 421 150.3 429 112.8 434C75.3 439 37.7 441 18.8 442L0 443Z" fill="#ff9ab2"></path><path d="M0 601L18.8 601C37.7 601 75.3 601 112.8 601C150.3 601 187.7 601 225.2 601C262.7 601 300.3 601 337.8 601C375.3 601 412.7 601 450.2 601C487.7 601 525.3 601 562.8 601C600.3 601 637.7 601 675.2 601C712.7 601 750.3 601 787.8 601C825.3 601 862.7 601 881.3 601L900 601L900 545L881.3 537C862.7 529 825.3 513 787.8 502C750.3 491 712.7 485 675.2 492C637.7 499 600.3 519 562.8 531C525.3 543 487.7 547 450.2 540C412.7 533 375.3 515 337.8 513C300.3 511 262.7 525 225.2 532C187.7 539 150.3 539 112.8 534C75.3 529 37.7 519 18.8 514L0 509Z" fill="#ff7599"></path></svg>